<svg width="23" height="20" viewBox="0 0 23 20" fill="none" xmlns="http://www.w3.org/2000/svg">
<path d="M16.8524 4.43141C16.7002 4.43227 16.5494 4.40389 16.4085 4.34791C16.2676 4.29192 16.1395 4.20943 16.0315 4.10516C15.9231 4.00058 15.8371 3.87615 15.7784 3.73906C15.7197 3.60197 15.6895 3.45493 15.6895 3.30641C15.6895 3.1579 15.7197 3.01086 15.7784 2.87377C15.8371 2.73667 15.9231 2.61225 16.0315 2.50766C16.9413 1.59478 18.0522 0.894697 19.2804 0.460164C19.8173 0.221231 20.4134 0.137671 20.9977 0.21946C21.5821 0.301249 22.1298 0.544932 22.5757 0.921414C22.6967 1.02227 22.795 1.14638 22.8644 1.28595C22.9338 1.42552 22.9728 1.57755 22.979 1.73248C22.9851 1.88741 22.9583 2.04191 22.9001 2.18628C22.842 2.33064 22.7538 2.46176 22.6412 2.5714C22.5285 2.68103 22.3937 2.76682 22.2454 2.82338C22.097 2.87994 21.9382 2.90605 21.779 2.90006C21.6197 2.89408 21.4635 2.85613 21.32 2.78861C21.1766 2.72108 21.049 2.62543 20.9454 2.50766C20.9454 2.50766 20.6332 2.38391 20.0089 2.58641C19.1336 2.92282 18.3444 3.44115 17.6964 4.10516C17.5856 4.21216 17.4538 4.29623 17.3087 4.3523C17.1636 4.40837 17.0084 4.43528 16.8524 4.43141Z" fill="#87AF41"/>
<path d="M12.0544 3.49773C12.611 4.40132 13.2874 5.22968 14.0662 5.96148C14.8183 6.71926 15.6696 7.37742 16.5983 7.91898C17.4543 8.4334 18.256 9.02878 18.9917 9.69648C19.4963 8.49624 19.6349 7.17998 19.3908 5.90512C19.1468 4.63026 18.5306 3.45078 17.6158 2.50773C16.6466 1.61763 15.4343 1.01801 14.1241 0.780596C12.8139 0.543182 11.4611 0.678018 10.2275 1.16898C10.9138 1.88484 11.5257 2.66487 12.0544 3.49773Z" fill="#9AD14B"/>
<path d="M15.3614 9.83141C14.2882 9.20589 13.3013 8.4498 12.4246 7.58141C11.5321 6.7284 10.755 5.76816 10.1121 4.72391C9.57037 3.84268 8.91357 3.03345 8.15813 2.31641C7.86061 2.53784 7.57863 2.77838 7.31409 3.03641C5.22133 5.06141 -1.93567 15.2652 1.27862 18.4489C1.60006 18.7316 1.97637 18.949 2.38542 19.0881C2.79446 19.2272 3.22797 19.2853 3.66043 19.2589C8.05407 19.2589 15.4076 14.2414 17.1188 12.5764C17.384 12.319 17.6312 12.0446 17.8588 11.7552C17.1162 11.0106 16.2765 10.3639 15.3614 9.83141Z" fill="#6688CC"/>
</svg>
