<svg width="29" height="18" viewBox="0 0 29 18" fill="none" xmlns="http://www.w3.org/2000/svg">
<path fill-rule="evenodd" clip-rule="evenodd" d="M9.62999 6.42524C12.1696 7.59985 12.6843 9.82164 10.7796 11.3878C10.5345 11.5893 10.2555 11.7739 9.94747 11.9387L9.62999 12.0967C7.09037 10.9221 6.57569 8.70028 8.48042 7.13415C8.72552 6.93263 9.00451 6.74799 9.31251 6.58324L9.62999 6.42524ZM14.2283 3.58952C16.768 4.76413 17.2826 6.98593 15.3779 8.55205C15.1328 8.75357 14.8538 8.93822 14.5458 9.10296L14.2283 9.26096C11.6887 8.08636 11.174 5.86456 13.0788 4.29843C13.3239 4.09691 13.6029 3.91227 13.9109 3.74752L14.2283 3.58952ZM18.8267 0.753804C21.3663 1.92841 21.881 4.15021 19.9762 5.71633C19.7312 5.91785 19.4522 6.1025 19.1442 6.26724L18.8267 6.42524C16.2871 5.25064 15.7724 3.02884 17.6771 1.46272C17.9222 1.26119 18.2012 1.07655 18.5092 0.911804L18.8267 0.753804ZM28.0234 6.42524C26.1187 7.99135 22.5159 8.30876 19.9763 7.13418C19.6495 6.98304 19.3501 6.81098 19.0829 6.62104L18.8267 6.42524C20.7314 4.85913 24.3342 4.54173 26.8738 5.7163C27.2006 5.86745 27.5 6.03951 27.7672 6.22945L28.0234 6.42524ZM23.425 9.26096C21.5203 10.8271 17.9175 11.1445 15.378 9.9699C15.0511 9.81876 14.7517 9.6467 14.4846 9.45676L14.2283 9.26096C16.133 7.69485 19.7358 7.37745 22.2754 8.55202C22.6022 8.70317 22.9016 8.87522 23.1688 9.06517L23.425 9.26096ZM18.8267 12.0967C16.922 13.6628 13.3192 13.9802 10.7796 12.8056C10.4528 12.6545 10.1534 12.4824 9.88621 12.2925L9.62999 12.0967C11.5347 10.5306 15.1375 10.2132 17.6771 11.3877C18.0039 11.5389 18.3033 11.7109 18.5705 11.9009L18.8267 12.0967ZM4.92278 9.32807C7.46239 10.5027 7.97707 12.7245 6.07234 14.2906C5.82725 14.4921 5.54825 14.6768 5.24026 14.8415L4.92278 14.9995C2.38316 13.8249 1.86848 11.6031 3.77321 10.037C4.0183 9.83546 4.2973 9.65082 4.60529 9.48607L4.92278 9.32807ZM14.1195 14.9995C12.2148 16.5656 8.61199 16.883 6.07239 15.7085C5.74559 15.5573 5.44616 15.3852 5.179 15.1953L4.92278 14.9995C6.82746 13.4334 10.4303 13.116 12.9699 14.2906C13.2967 14.4417 13.5961 14.6138 13.8632 14.8037L14.1195 14.9995ZM28.1922 0.650372C28.6411 2.58837 26.4575 4.38384 23.3149 4.66069C22.9105 4.69631 22.5015 4.70522 22.0948 4.6874L21.6891 4.66065C21.2402 2.72268 23.4238 0.92722 26.5664 0.650371C27.1056 0.602871 27.653 0.602871 28.1922 0.650372Z" fill="#6688CC"/>
<path d="M1.09082 17.3626L19.5205 5.99736M9.62999 12.0967L9.94747 11.9387C10.2555 11.7739 10.5345 11.5893 10.7796 11.3878C12.6843 9.82164 12.1696 7.59985 9.62999 6.42524L9.31251 6.58324C9.00451 6.74799 8.72552 6.93263 8.48042 7.13415C6.57569 8.70028 7.09037 10.9221 9.62999 12.0967ZM9.62999 12.0967L9.88621 12.2925C10.1534 12.4824 10.4528 12.6545 10.7796 12.8056C13.3192 13.9802 16.922 13.6628 18.8267 12.0967L18.5705 11.9009C18.3033 11.7109 18.0039 11.5389 17.6771 11.3877C15.1375 10.2132 11.5347 10.5306 9.62999 12.0967ZM14.2283 9.26096L14.5458 9.10296C14.8538 8.93822 15.1328 8.75357 15.3779 8.55205C17.2826 6.98593 16.768 4.76413 14.2283 3.58952L13.9109 3.74752C13.6029 3.91227 13.3239 4.09691 13.0788 4.29843C11.174 5.86456 11.6887 8.08636 14.2283 9.26096ZM14.2283 9.26096L14.4846 9.45676C14.7517 9.6467 15.0511 9.81876 15.378 9.9699C17.9175 11.1445 21.5203 10.8271 23.425 9.26096L23.1688 9.06517C22.9016 8.87522 22.6022 8.70317 22.2754 8.55202C19.7358 7.37745 16.133 7.69485 14.2283 9.26096ZM18.8267 6.42524L19.1442 6.26724C19.4522 6.1025 19.7312 5.91785 19.9762 5.71633C21.881 4.15021 21.3663 1.92841 18.8267 0.753804L18.5092 0.911804C18.2012 1.07655 17.9222 1.26119 17.6771 1.46272C15.7724 3.02884 16.2871 5.25064 18.8267 6.42524ZM18.8267 6.42524L19.0829 6.62104C19.3501 6.81098 19.6495 6.98304 19.9763 7.13418C22.5159 8.30876 26.1187 7.99135 28.0234 6.42524L27.7672 6.22945C27.5 6.03951 27.2006 5.86745 26.8738 5.7163C24.3342 4.54173 20.7314 4.85913 18.8267 6.42524ZM4.92278 14.9995L5.24026 14.8415C5.54826 14.6768 5.82725 14.4921 6.07234 14.2906C7.97707 12.7245 7.46239 10.5027 4.92278 9.32807L4.60529 9.48607C4.2973 9.65082 4.0183 9.83546 3.77321 10.037C1.86848 11.6031 2.38316 13.8249 4.92278 14.9995ZM4.92278 14.9995L5.179 15.1953C5.44616 15.3852 5.74559 15.5573 6.07239 15.7085C8.61199 16.883 12.2148 16.5656 14.1195 14.9995L13.8632 14.8037C13.5961 14.6138 13.2967 14.4417 12.9699 14.2906C10.4303 13.116 6.82746 13.4334 4.92278 14.9995ZM28.1922 0.650372C28.6411 2.58837 26.4575 4.38384 23.3149 4.66069C22.9105 4.69631 22.5015 4.70522 22.0948 4.6874L21.6891 4.66065C21.2402 2.72268 23.4238 0.92722 26.5664 0.650371C27.1056 0.602871 27.653 0.602871 28.1922 0.650372Z" stroke="#6688CC" stroke-width="0.5" stroke-linecap="round"/>
</svg>
