<svg width="56" height="45" viewBox="0 0 56 45" fill="none" xmlns="http://www.w3.org/2000/svg">
<path d="M27.75 14.0625C31.5815 14.0625 34.6875 10.9565 34.6875 7.125C34.6875 3.29352 31.5815 0.1875 27.75 0.1875C23.9185 0.1875 20.8125 3.29352 20.8125 7.125C20.8125 10.9565 23.9185 14.0625 27.75 14.0625Z" fill="#6688CC"/>
<path d="M53.1875 32.5625H50.875C49.8112 19.6125 39.9137 9.4375 27.8656 9.4375C15.8175 9.4375 5.80438 19.6125 4.74063 32.5625H2.3125C1.69919 32.5625 1.11099 32.8061 0.677316 33.2398C0.243638 33.6735 0 34.2617 0 34.875C0 35.4883 0.243638 36.0765 0.677316 36.5102C1.11099 36.9439 1.69919 37.1875 2.3125 37.1875H53.1875C53.8008 37.1875 54.389 36.9439 54.8227 36.5102C55.2564 36.0765 55.5 35.4883 55.5 34.875C55.5 34.2617 55.2564 33.6735 54.8227 33.2398C54.389 32.8061 53.8008 32.5625 53.1875 32.5625Z" fill="#415885"/>
<path d="M48.5625 44.125H6.9375C6.32419 44.125 5.73599 43.8814 5.30232 43.4477C4.86864 43.014 4.625 42.4258 4.625 41.8125C4.625 41.1992 4.86864 40.611 5.30232 40.1773C5.73599 39.7436 6.32419 39.5 6.9375 39.5H48.5625C49.1758 39.5 49.764 39.7436 50.1977 40.1773C50.6314 40.611 50.875 41.1992 50.875 41.8125C50.875 42.4258 50.6314 43.014 50.1977 43.4477C49.764 43.8814 49.1758 44.125 48.5625 44.125Z" fill="#5976B0"/>
</svg>
