<svg width="62" height="62" viewBox="0 0 62 62" fill="none" xmlns="http://www.w3.org/2000/svg">
<path d="M19.7141 20.0426C13.6782 19.5279 7.84613 24.4318 8.23611 30.4771C8.86222 41.5377 18.1488 45.4567 23.627 45.4567C28.8442 45.4567 37.9745 41.7464 39.0179 30.4771C39.408 24.4318 33.5759 19.5278 27.54 20.0426C25.9481 20.1783 24.1836 21.1374 23.627 21.2365C23.0704 21.1374 21.3059 20.1783 19.7141 20.0426Z" fill="#00162B" fill-opacity="0.2"/>
<path fill-rule="evenodd" clip-rule="evenodd" d="M40.0583 30.5588L40.0569 30.5733C38.9493 42.536 29.2098 46.5001 23.627 46.5001C20.6742 46.5001 16.7565 45.454 13.4776 42.943C10.1653 40.4064 7.52669 36.3878 7.19455 30.5401C6.7597 23.7559 13.2407 18.4433 19.8027 19.0029C20.7498 19.0836 21.7012 19.4017 22.4288 19.6776C22.6761 19.7714 22.919 19.869 23.1265 19.9523C23.2221 19.9907 23.3102 20.026 23.3877 20.0566C23.4805 20.0932 23.5596 20.1236 23.627 20.1483C23.6945 20.1236 23.7736 20.0932 23.8664 20.0566C23.9439 20.026 24.032 19.9907 24.1276 19.9523C24.335 19.869 24.5779 19.7714 24.8253 19.6776C25.5529 19.4017 26.5042 19.0836 27.4513 19.0029C34.0146 18.4432 40.4971 23.7581 40.0592 30.5443L40.0583 30.5588ZM23.627 21.2365C23.4422 21.2036 23.1241 21.0758 22.7234 20.9149C21.9175 20.5912 20.7773 20.1332 19.7141 20.0426C13.6782 19.5279 7.84613 24.4318 8.23611 30.4771C8.86222 41.5377 18.1488 45.4567 23.627 45.4567C28.8442 45.4567 37.9745 41.7464 39.0179 30.4771C39.408 24.4318 33.5759 19.5278 27.54 20.0426C26.4767 20.1332 25.3365 20.5912 24.5306 20.9149C24.1299 21.0758 23.8119 21.2036 23.627 21.2365Z" fill="#00162B" fill-opacity="0.2"/>
<path d="M22.983 18.1243C22.3224 13.26 18.4095 14.0426 16.0617 11.4339C16.7229 13.0453 20.7833 17.4779 22.983 18.1243Z" fill="#73B40D"/>
<path fill-rule="evenodd" clip-rule="evenodd" d="M23.6847 18.9406C23.9614 18.7028 24.0988 18.341 24.0497 17.9794C23.8641 16.6125 23.4376 15.5657 22.8093 14.7412C22.1859 13.9231 21.4177 13.3956 20.6705 12.9882C20.3001 12.7862 19.9213 12.6068 19.5671 12.4404C19.54 12.4277 19.5131 12.415 19.4864 12.4025C19.1542 12.2465 18.8438 12.1008 18.5393 11.9417C17.8889 11.602 17.3287 11.2325 16.862 10.7139C16.5118 10.3248 15.9324 10.244 15.4892 10.5226C15.0459 10.8011 14.8674 11.3582 15.0661 11.8425C15.2902 12.3887 15.7454 13.0641 16.2638 13.7296C16.8002 14.4184 17.4668 15.1752 18.1796 15.8972C18.8914 16.6181 19.6644 17.3197 20.4159 17.8901C21.146 18.4444 21.9382 18.9391 22.6797 19.157C23.0297 19.2599 23.408 19.1784 23.6847 18.9406ZM22.6926 16.8266C22.8187 17.2088 22.9172 17.6384 22.9831 18.1243C22.6232 18.0185 22.2133 17.8113 21.7767 17.5317C20.5308 16.7337 19.0668 15.3457 17.9205 14.0409C17.0139 13.009 16.3061 12.029 16.0619 11.4339C16.7993 12.2533 17.6911 12.7381 18.5881 13.1684C18.7339 13.2383 18.8798 13.3068 19.0252 13.3751C20.5491 14.0904 22.0174 14.7797 22.6926 16.8266Z" fill="#436C02"/>
<path d="M23.3674 19.6892C24.0279 14.8249 28.0616 12.4771 30.6702 12.9989C26.7572 13.5206 27.8007 18.477 23.3674 19.6892Z" fill="#73B40D"/>
<path fill-rule="evenodd" clip-rule="evenodd" d="M22.6585 20.4991C22.3867 20.2611 22.2525 19.9026 22.3012 19.5446C23.0297 14.1797 27.5564 11.2786 30.8817 11.9437C31.3977 12.0469 31.7635 12.5081 31.7464 13.0341C31.7293 13.56 31.3345 13.9966 30.8128 14.0661C29.466 14.2457 28.9763 15.0806 28.1624 16.5949L28.1526 16.6132C27.3706 18.0684 26.3359 19.9938 23.6517 20.7277C23.3032 20.823 22.9302 20.7371 22.6585 20.4991ZM23.6149 18.4726C23.5089 18.8588 23.4255 19.2646 23.3678 19.6895C23.8092 19.5688 24.1963 19.4109 24.5395 19.2241C25.9367 18.4631 26.6044 17.2205 27.2379 16.0414C27.5549 15.4516 27.8632 14.8776 28.2501 14.3878C28.8074 13.6824 29.5275 13.1516 30.6706 12.9992C29.749 12.8148 28.6495 12.9887 27.5838 13.5051C25.8964 14.3227 24.2935 15.9991 23.6149 18.4726Z" fill="#436C02"/>
<path fill-rule="evenodd" clip-rule="evenodd" d="M23.3664 10.8789C23.9609 10.8789 24.4428 11.3608 24.4428 11.9553V19.7812C24.4428 20.3757 23.9609 20.8576 23.3664 20.8576C22.772 20.8576 22.29 20.3757 22.29 19.7812V11.9553C22.29 11.3608 22.772 10.8789 23.3664 10.8789Z" fill="#457003"/>
<path d="M18.6713 18.9991C12.6354 18.4843 6.80335 23.3883 7.19333 29.4336C7.81944 40.4942 17.1061 44.4132 22.5842 44.4132C27.8014 44.4132 36.9317 40.7029 37.9751 29.4336C38.3652 23.3883 32.5331 18.4843 26.4972 18.9991C24.9053 19.1348 23.1408 20.0939 22.5842 20.193C22.0276 20.0939 20.2632 19.1348 18.6713 18.9991Z" fill="#6688CC"/>
<path fill-rule="evenodd" clip-rule="evenodd" d="M39.0479 29.5176L39.0465 29.5326C37.9369 41.5172 28.1781 45.4893 22.5838 45.4893C19.6243 45.4893 15.6993 44.4411 12.4144 41.9254C9.09491 39.3833 6.45119 35.3561 6.11845 29.4984C5.68217 22.6908 12.1837 17.3653 18.7623 17.9263C19.7142 18.0075 20.6691 18.327 21.3972 18.6031C21.6449 18.697 21.8884 18.7948 22.096 18.8781C22.1915 18.9165 22.2793 18.9518 22.3565 18.9822C22.4441 19.0168 22.5192 19.0457 22.5838 19.0695C22.6483 19.0457 22.7235 19.0168 22.8111 18.9822C22.8882 18.9518 22.9761 18.9165 23.0716 18.8781C23.2792 18.7948 23.5227 18.697 23.7704 18.6031C24.4985 18.327 25.4534 18.0075 26.4053 17.9263C32.9852 17.3652 39.4882 22.6931 39.0489 29.5027L39.0479 29.5176ZM22.5838 20.1927C22.399 20.1599 22.0809 20.0321 21.6802 19.8712C20.8743 19.5475 19.7341 19.0895 18.6708 18.9988C12.6349 18.4841 6.80291 23.3881 7.19288 29.4333C7.819 40.4939 17.1056 44.4129 22.5838 44.4129C27.801 44.4129 36.9313 40.7026 37.9747 29.4333C38.3648 23.3881 32.5327 18.4841 26.4967 18.9988C25.4335 19.0895 24.2933 19.5475 23.4874 19.8712C23.0867 20.0321 22.7686 20.1599 22.5838 20.1927Z" fill="#6688CC"/>
<path fill-rule="evenodd" clip-rule="evenodd" d="M9.66406 22.6074C11.8576 20.1724 15.2313 18.7057 18.6713 18.9991C19.7346 19.0897 20.8748 19.5477 21.6807 19.8714C22.0814 20.0323 22.3995 20.1601 22.5843 20.193C22.7691 20.1601 23.0872 20.0323 23.4879 19.8714C24.2938 19.5477 25.434 19.0897 26.4972 18.9991C30.1376 18.6886 33.7039 20.3493 35.8756 23.0425C33.0443 21.5923 29.6382 20.8181 26.4973 21.0859C25.434 21.1766 24.2938 21.6346 23.4879 21.9583C23.0872 22.1192 22.7691 22.247 22.5843 22.2799C22.3995 22.247 22.0814 22.1192 21.6807 21.9583C20.8748 21.6346 19.7346 21.1766 18.6714 21.0859C15.4243 20.809 12.2761 21.4117 9.66406 22.6074Z" fill="#5C7CBB"/>
<path fill-rule="evenodd" clip-rule="evenodd" d="M12.1885 40.3429C14.9927 42.1021 18.1073 42.8479 20.4971 42.8479C25.7143 42.8479 34.8446 39.1376 35.888 27.8683C36.074 24.986 34.8455 22.3632 32.8549 20.4634C36.0184 22.3022 38.2194 25.6436 37.9749 29.4335C36.9315 40.7028 27.8012 44.4131 22.584 44.4131C19.5788 44.4131 15.4274 43.2337 12.1885 40.3429Z" fill="#5C7CBB"/>
<path d="M23.3662 17.8219C27.0183 14.564 28.0617 18.2162 31.453 18.7379C29.7396 19.0509 25.0976 19.3248 23.3662 17.8219Z" fill="#8ED918"/>
<path fill-rule="evenodd" clip-rule="evenodd" d="M22.2901 17.8295C22.288 17.5202 22.4191 17.2249 22.6499 17.019C23.6462 16.1302 24.579 15.6077 25.5217 15.455C26.4894 15.2983 27.3041 15.5574 27.9893 15.9002C28.3242 16.0678 28.6449 16.264 28.9385 16.4478C29.0012 16.4871 29.0626 16.5258 29.1231 16.5639C29.357 16.7111 29.5772 16.8498 29.8108 16.9847C30.3841 17.3158 30.9534 17.5722 31.6168 17.6743C32.1363 17.7542 32.5221 18.1976 32.5295 18.7231C32.5368 19.2486 32.1637 19.7026 31.6467 19.797C30.709 19.9684 29.037 20.1207 27.3623 20.0362C26.5221 19.9938 25.6496 19.8904 24.8523 19.6861C24.0688 19.4853 23.2723 19.1658 22.6608 18.6351C22.4272 18.4323 22.2922 18.1388 22.2901 17.8295ZM24.2413 17.137C23.9664 17.3199 23.6758 17.5463 23.3664 17.8222C23.6328 18.0534 23.968 18.2426 24.3508 18.396C25.6209 18.905 27.415 19.0208 28.9571 18.9745C29.972 18.944 30.8778 18.8433 31.4532 18.7382C30.5827 18.6043 29.8669 18.2641 29.222 17.8875C28.9871 17.7503 28.7616 17.6083 28.5414 17.4697C27.2107 16.6316 26.0755 15.9167 24.2413 17.137Z" fill="#436C02"/>
<path d="M22.5838 18.2163C20.497 15.6076 18.1492 17.1728 13.7145 17.4337C15.5405 18.4771 20.5512 19.2768 22.5838 18.2163Z" fill="#8ED918"/>
<path fill-rule="evenodd" clip-rule="evenodd" d="M23.6373 18.4383C23.7037 18.1234 23.6256 17.7953 23.4246 17.544C22.8026 16.7665 22.1117 16.2427 21.3156 15.9476C20.5338 15.6579 19.7357 15.6208 18.9549 15.6753C18.2978 15.7211 17.5839 15.839 16.8599 15.9585C16.7418 15.978 16.6234 15.9975 16.505 16.0168C15.638 16.1579 14.7036 16.2974 13.6515 16.3593C13.176 16.3872 12.7754 16.7244 12.6667 17.1882C12.5581 17.652 12.7671 18.132 13.1807 18.3684C14.2784 18.9956 16.1554 19.479 17.95 19.6835C18.8666 19.788 19.8099 19.8257 20.6767 19.7617C21.5256 19.6991 22.387 19.5333 23.082 19.1707C23.3673 19.0219 23.571 18.7532 23.6373 18.4383ZM21.7529 17.3986C22.037 17.6087 22.3128 17.8773 22.5841 18.2164C22.2744 18.378 21.8955 18.4964 21.4693 18.5773C19.9398 18.8678 17.8005 18.6756 16.0592 18.2652C15.1014 18.0395 14.264 17.7477 13.7147 17.4338C14.589 17.3824 15.3822 17.2802 16.1082 17.1694C16.4326 17.1199 16.7435 17.0686 17.0423 17.0194C19.0264 16.6923 20.4749 16.4536 21.7529 17.3986Z" fill="#436C02"/>
<path d="M18.9081 22.2022C19.9804 23.7977 18.9095 26.395 16.5162 28.0034C14.1229 29.6117 11.3135 29.6222 10.2413 28.0266C9.16903 26.4311 10.2399 23.8339 12.6332 22.2255C15.0265 20.6171 17.8359 20.6067 18.9081 22.2022Z" fill="#6688CC"/>
<path fill-rule="evenodd" clip-rule="evenodd" d="M14.4642 23.4691C14.8131 23.9503 14.7059 24.6234 14.2246 24.9723C13.8723 25.2278 13.6073 25.5261 13.4148 25.8694C13.1241 26.388 12.4681 26.5726 11.9495 26.2819C11.431 25.9912 11.2463 25.3351 11.5371 24.8166C11.8892 24.1886 12.3687 23.6589 12.9609 23.2295C13.4422 22.8805 14.1152 22.9878 14.4642 23.4691Z" fill="white"/>
<path d="M32.0353 33.742C31.6908 34.2095 31.0325 34.3093 30.565 33.9648C30.0974 33.6204 29.9976 32.9621 30.3421 32.4945C30.6866 32.027 31.3448 31.9272 31.8124 32.2717C32.28 32.6161 32.3797 33.2744 32.0353 33.742Z" fill="#6688CC"/>
<path d="M33.7042 37.2093C33.3597 37.6768 32.7015 37.7766 32.2339 37.4321C31.7664 37.0877 31.6666 36.4294 32.011 35.9618C32.3555 35.4943 33.0138 35.3945 33.4814 35.739C33.9489 36.0834 34.0487 36.7417 33.7042 37.2093Z" fill="#6688CC"/>
<path d="M34.9564 33.6525C34.698 34.0032 34.2043 34.078 33.8537 33.8197C33.503 33.5613 33.4282 33.0676 33.6865 32.717C33.9449 32.3663 34.4386 32.2915 34.7892 32.5498C35.1399 32.8082 35.2147 33.3019 34.9564 33.6525Z" fill="#6688CC"/>
<path d="M31.0519 39.9344C30.7074 40.4019 30.0491 40.5017 29.5816 40.1572C29.114 39.8128 29.0142 39.1545 29.3587 38.6869C29.7032 38.2194 30.3615 38.1196 30.829 38.4641C31.2966 38.8085 31.3963 39.4668 31.0519 39.9344Z" fill="#6688CC"/>
<path d="M30.0421 36.5179C29.6976 36.9854 29.0394 37.0852 28.5718 36.7407C28.1042 36.3962 28.0045 35.738 28.3489 35.2704C28.6934 34.8029 29.3517 34.7031 29.8192 35.0475C30.2868 35.392 30.3866 36.0503 30.0421 36.5179Z" fill="#6688CC"/>
<path d="M27.132 41.4998C26.7875 41.9673 26.1292 42.0671 25.6616 41.7226C25.1941 41.3782 25.0943 40.7199 25.4388 40.2523C25.7833 39.7848 26.4415 39.685 26.9091 40.0295C27.3766 40.3739 27.4764 41.0322 27.132 41.4998Z" fill="#6688CC"/>
<path d="M26.7228 38.1878C26.3783 38.6553 25.72 38.7551 25.2525 38.4106C24.7849 38.0662 24.6851 37.4079 25.0296 36.9403C25.3741 36.4728 26.0323 36.373 26.4999 36.7175C26.9675 37.0619 27.0672 37.7202 26.7228 38.1878Z" fill="#6688CC"/>
<path d="M23.0238 42.0612C22.7654 42.4119 22.2717 42.4867 21.921 42.2284C21.5704 41.97 21.4955 41.4763 21.7539 41.1257C22.0122 40.775 22.506 40.7002 22.8566 40.9585C23.2073 41.2169 23.2821 41.7106 23.0238 42.0612Z" fill="#6688CC"/>
<path d="M40.8455 36.6902C34.4656 43.5594 28.3748 55.7049 22.0521 49.6935C15.7294 43.6822 27.5726 37.0059 33.9525 30.1367C40.3324 23.2675 45.3386 21.0303 47.242 22.84C49.1454 24.6497 47.2254 29.8211 40.8455 36.6902Z" fill="#00162B" fill-opacity="0.2"/>
<path fill-rule="evenodd" clip-rule="evenodd" d="M27.0402 52.2853C25.0541 52.7954 23.0964 52.2743 21.269 50.5368C19.441 48.7988 18.8149 46.861 19.2268 44.8347C19.6124 42.9374 20.8784 41.1314 22.3954 39.4553C23.9307 37.7591 25.8631 36.049 27.7603 34.3733L27.8279 34.3137C29.7247 32.6384 31.5887 30.9921 33.1191 29.3443C36.3559 25.8592 39.305 23.4804 41.7523 22.2051C42.9736 21.5686 44.131 21.1748 45.1754 21.0967C46.2357 21.0174 47.2541 21.2637 48.0252 21.9968C48.7969 22.7306 49.1015 23.7434 49.0863 24.8182C49.0712 25.8762 48.7509 27.0665 48.1959 28.3359C47.0838 30.8795 44.9147 33.9987 41.6789 37.4826C40.2195 39.0539 38.7698 40.9153 37.2908 42.8145C37.1955 42.9368 37.1002 43.0592 37.0047 43.1817C35.4446 45.1836 33.8467 47.2125 32.2356 48.8407C30.6427 50.4506 28.908 51.8056 27.0402 52.2853ZM36.4016 42.0866C37.8715 40.1991 39.3505 38.2998 40.8455 36.6902C47.2254 29.8211 49.1454 24.6497 47.242 22.84C45.3386 21.0303 40.3324 23.2675 33.9525 30.1367C32.383 31.8266 30.4828 33.5049 28.6037 35.1644C22.8449 40.2506 17.2849 45.1611 22.0521 49.6935C26.8933 54.2963 31.5985 48.2543 36.4016 42.0866Z" fill="#00162B" fill-opacity="0.2"/>
<path d="M48.1658 43.3529C40.7481 49.0563 33.9801 60.3244 27.6328 51.8739C21.2854 43.4233 33.8283 39.8435 41.2459 34.1402C48.6635 28.4368 52.5835 28.6762 54.4944 31.2202C56.4052 33.7642 55.5834 37.6496 48.1658 43.3529Z" fill="#00162B" fill-opacity="0.2"/>
<path fill-rule="evenodd" clip-rule="evenodd" d="M32.4463 56.0663C30.3515 56.0117 28.4461 54.8691 26.7222 52.574C24.9983 50.2789 24.4206 48.1155 24.9295 46.0589C25.4201 44.0764 26.8621 42.4593 28.5601 41.0756C30.2707 39.6817 32.4105 38.3932 34.5144 37.1331C34.5655 37.1024 34.6167 37.0718 34.6678 37.0412C36.7511 35.7935 38.8056 34.5632 40.5539 33.2189C44.3174 30.3252 47.3348 28.8226 49.7608 28.4438C50.992 28.2516 52.099 28.3447 53.0699 28.7204C54.0446 29.0976 54.8143 29.7338 55.405 30.5201C55.9956 31.3064 56.3952 32.2272 56.4934 33.2783C56.5912 34.3253 56.3833 35.4294 55.8705 36.5781C54.8601 38.8415 52.6212 41.3805 48.8577 44.2742C47.1094 45.6185 45.3876 47.2917 43.6416 48.9884L43.5129 49.1134C41.7495 50.8268 39.9495 52.5675 38.164 53.8618C36.3916 55.1464 34.4655 56.119 32.4463 56.0663ZM42.8716 48.1322C44.6002 46.4523 46.3638 44.7384 48.1658 43.3529C55.5834 37.6496 56.4052 33.7642 54.4944 31.2202C52.5835 28.6762 48.6635 28.4368 41.2459 34.1402C39.444 35.5257 37.3396 36.7859 35.277 38.021C28.8491 41.8702 22.8274 45.4762 27.6328 51.8739C32.4382 58.2716 37.4847 53.3673 42.8716 48.1322Z" fill="#00162B" fill-opacity="0.2"/>
<path d="M39.7012 35.5332C33.3213 42.4023 27.2306 54.5478 20.9079 48.5365C14.5852 42.5252 26.4284 35.8488 32.8082 28.9797C39.1881 22.1105 44.1943 19.8733 46.0977 21.683C48.0012 23.4927 46.0811 28.664 39.7012 35.5332Z" fill="#445C8D"/>
<path fill-rule="evenodd" clip-rule="evenodd" d="M25.8964 51.1282C23.9103 51.6383 21.9526 51.1171 20.1251 49.3796C18.2971 47.6416 17.6711 45.7038 18.083 43.6775C18.4686 41.7802 19.7346 39.9743 21.2516 38.2982C22.7869 36.6019 24.7193 34.8919 26.6165 33.2162L26.684 33.1565C28.5809 31.4812 30.4448 29.8349 31.9753 28.1872C35.2121 24.7021 38.1612 22.3232 40.6084 21.0479C41.8298 20.4115 42.9871 20.0177 44.0315 19.9396C45.0918 19.8603 46.1102 20.1065 46.8813 20.8396C47.6531 21.5734 47.9577 22.5862 47.9424 23.6611C47.9274 24.719 47.6071 25.9094 47.0521 27.1788C45.94 29.7224 43.7709 32.8415 40.5351 36.3254C39.0757 37.8967 37.626 39.7582 36.1469 41.6573C36.0517 41.7796 35.9564 41.902 35.8609 42.0245C34.3007 44.0265 32.7028 46.0554 31.0918 47.6836C29.4989 49.2934 27.7642 50.6484 25.8964 51.1282ZM35.2578 40.9294C36.7277 39.0419 38.2067 37.1426 39.7016 35.5331C46.0815 28.6639 48.0016 23.4926 46.0982 21.6829C44.1947 19.8732 39.1886 22.1104 32.8087 28.9795C31.2391 30.6695 29.3389 32.3477 27.4599 34.0073C21.7011 39.0934 16.1411 44.0039 20.9083 48.5364C25.7495 53.1391 30.4547 47.0971 35.2578 40.9294Z" fill="#425782"/>
<path fill-rule="evenodd" clip-rule="evenodd" d="M34.3032 36.1716C35.6256 34.443 36.9561 32.7036 38.3149 31.2406C42.1955 27.0624 44.1984 23.516 44.5284 21.0845C45.1748 21.1064 45.7032 21.3076 46.0981 21.683C48.0015 23.4927 46.0814 28.6641 39.7015 35.5332C38.2066 37.1428 36.7276 39.0421 35.2577 40.9296C30.4546 47.0973 25.7494 53.1393 20.9082 48.5365C18.6286 46.3692 18.7104 44.1154 20.0462 41.7973C20.2871 42.1147 20.5733 42.4325 20.9082 42.751C25.7494 47.3537 29.9823 41.8203 34.3032 36.1716Z" fill="#445C8D"/>
<path d="M39.46 24.3733C40.2638 25.6977 35.5694 31.8946 30.5965 35.9444C27.5254 38.4455 22.019 42.8872 21.8128 40.9788C21.1669 40.2209 27.5448 34.6772 30.3106 32.4732C36.3148 27.6884 38.2624 23.3835 39.46 24.3733Z" fill="#6688CC"/>
<path fill-rule="evenodd" clip-rule="evenodd" d="M27.8555 36.1142C28.0788 36.3401 28.0788 36.7065 27.8555 36.9324C26.991 37.8071 26.2706 38.3726 25.3928 39.0617C25.0791 39.3081 24.7452 39.5702 24.3774 39.8679C24.1308 40.0675 23.771 40.027 23.5737 39.7775C23.3764 39.528 23.4164 39.1639 23.663 38.9643C24.0617 38.6416 24.4117 38.3668 24.7326 38.1148C25.5885 37.4427 26.2366 36.9339 27.0468 36.1142C27.2701 35.8883 27.6322 35.8883 27.8555 36.1142Z" fill="#445C8D"/>
<path d="M47.2387 42.2746C39.8211 47.9779 33.0531 59.2461 26.7057 50.7955C20.3584 42.345 32.9013 38.7652 40.3189 33.0618C47.7365 27.3585 51.6565 27.5978 53.5673 30.1419C55.4782 32.6859 54.6563 36.5712 47.2387 42.2746Z" fill="#6688CC"/>
<path fill-rule="evenodd" clip-rule="evenodd" d="M31.5194 54.9878C29.4246 54.9331 27.5192 53.7906 25.7953 51.4954C24.0714 49.2003 23.4937 47.037 24.0026 44.9803C24.4932 42.9979 25.9352 41.3807 27.6332 39.9971C29.3438 38.6032 31.4836 37.3146 33.5875 36.0545C33.6386 36.0239 33.6898 35.9932 33.7409 35.9626C35.8242 34.715 37.8787 33.4846 39.627 32.1403C43.3905 29.2467 46.4079 27.7441 48.8339 27.3653C50.0651 27.173 51.1722 27.2661 52.143 27.6419C53.1177 28.0191 53.8874 28.6552 54.4781 29.4415C55.0687 30.2278 55.4683 31.1486 55.5665 32.1998C55.6643 33.2467 55.4564 34.3508 54.9436 35.4996C53.9332 37.763 51.6942 40.302 47.9308 43.1956C46.1825 44.5399 44.4607 46.2131 42.7147 47.9098L42.586 48.0348C40.8226 49.7482 39.0226 51.489 37.2371 52.7832C35.4647 54.0679 33.5386 55.0404 31.5194 54.9878ZM41.9447 47.0536C43.6733 45.3738 45.4369 43.6599 47.2389 42.2744C54.6565 36.571 55.4783 32.6857 53.5675 30.1417C51.6566 27.5976 47.7366 27.3583 40.319 33.0616C38.5171 34.4471 36.4127 35.7073 34.3501 36.9424C27.9222 40.7917 21.9005 44.3976 26.7059 50.7953C31.5113 57.193 36.5578 52.2887 41.9447 47.0536Z" fill="#6688CC"/>
<path fill-rule="evenodd" clip-rule="evenodd" d="M40.8015 44.7392C42.53 43.0594 44.2936 41.3455 46.0956 39.96C51.833 35.5485 53.6243 32.2248 53.2572 29.7681C53.3662 29.8861 53.4697 30.0108 53.5679 30.1415C55.4787 32.6855 54.6569 36.5708 47.2392 42.2742C45.4373 43.6597 43.6737 45.3736 41.9451 47.0534C36.5582 52.2886 31.5117 57.1928 26.7063 50.7951C25.9527 49.7918 25.4653 48.8572 25.2041 47.9795C25.3162 48.1447 25.4356 48.3118 25.5626 48.4809C30.368 54.8786 35.4145 49.9743 40.8015 44.7392Z" fill="#445C8D"/>
<path d="M45.5177 33.4632C46.3216 34.7877 35.7427 42.3089 35.7427 42.3089C35.7427 42.3089 27.0331 47.5226 26.3872 46.7647C25.7412 46.0067 29.7141 41.9914 32.8835 40.4403C41.229 36.356 44.3202 32.4734 45.5177 33.4632Z" fill="#445C8D"/>
<path fill-rule="evenodd" clip-rule="evenodd" d="M36.5205 39.7057C36.709 39.9621 36.6564 40.3245 36.403 40.5152C35.6902 41.0517 34.4234 41.7844 33.1905 42.4974C33.0973 42.5514 33.0042 42.6052 32.9116 42.6588C31.552 43.4459 30.3033 44.1812 29.7415 44.6584C29.4996 44.8639 29.139 44.832 28.9359 44.5873C28.7328 44.3426 28.7642 43.9777 29.0061 43.7722C29.6667 43.211 31.0306 42.4146 32.3436 41.6545C32.425 41.6073 32.5063 41.5603 32.5873 41.5134C33.8561 40.7794 35.0661 40.0793 35.7204 39.5868C35.9737 39.3961 36.332 39.4493 36.5205 39.7057Z" fill="white"/>
<path d="M36.1882 37.3669C36.1882 37.7797 35.8575 38.1142 35.4496 38.1142C35.0416 38.1142 34.7109 37.7797 34.7109 37.3669C34.7109 36.9542 35.0416 36.6196 35.4496 36.6196C35.8575 36.6196 36.1882 36.9542 36.1882 37.3669Z" fill="#445C8D"/>
<path d="M41.112 35.3743C41.112 35.787 40.7813 36.1216 40.3734 36.1216C39.9655 36.1216 39.6348 35.787 39.6348 35.3743C39.6348 34.9615 39.9655 34.627 40.3734 34.627C40.7813 34.627 41.112 34.9615 41.112 35.3743Z" fill="#445C8D"/>
<path d="M44.0671 32.385C44.0671 32.7977 43.7364 33.1323 43.3285 33.1323C42.9205 33.1323 42.5898 32.7977 42.5898 32.385C42.5898 31.9723 42.9205 31.6377 43.3285 31.6377C43.7364 31.6377 44.0671 31.9723 44.0671 32.385Z" fill="#445C8D"/>
<path d="M31.7565 41.3523C31.7565 41.765 31.4258 42.0996 31.0179 42.0996C30.61 42.0996 30.2793 41.765 30.2793 41.3523C30.2793 40.9396 30.61 40.605 31.0179 40.605C31.4258 40.605 31.7565 40.9396 31.7565 41.3523Z" fill="#445C8D"/>
<path d="M38.6499 35.6232C38.6499 35.8984 38.4294 36.1214 38.1574 36.1214C37.8855 36.1214 37.665 35.8984 37.665 35.6232C37.665 35.3481 37.8855 35.125 38.1574 35.125C38.4294 35.125 38.6499 35.3481 38.6499 35.6232Z" fill="#445C8D"/>
<path d="M37.6655 38.1139C37.6655 38.3891 37.445 38.6121 37.1731 38.6121C36.9011 38.6121 36.6807 38.3891 36.6807 38.1139C36.6807 37.8388 36.9011 37.6157 37.1731 37.6157C37.445 37.6157 37.6655 37.8388 37.6655 38.1139Z" fill="#445C8D"/>
<path d="M42.0971 33.132C42.0971 33.4071 41.8767 33.6302 41.6047 33.6302C41.3328 33.6302 41.1123 33.4071 41.1123 33.132C41.1123 32.8568 41.3328 32.6338 41.6047 32.6338C41.8767 32.6338 42.0971 32.8568 42.0971 33.132Z" fill="#445C8D"/>
<path d="M46.0366 31.1393C46.0366 31.4145 45.8161 31.6375 45.5442 31.6375C45.2722 31.6375 45.0518 31.4145 45.0518 31.1393C45.0518 30.8642 45.2722 30.6411 45.5442 30.6411C45.8161 30.6411 46.0366 30.8642 46.0366 31.1393Z" fill="#445C8D"/>
<path d="M29.2944 42.0998C29.2944 42.3749 29.0739 42.598 28.802 42.598C28.53 42.598 28.3096 42.3749 28.3096 42.0998C28.3096 41.8246 28.53 41.6016 28.802 41.6016C29.0739 41.6016 29.2944 41.8246 29.2944 42.0998Z" fill="#445C8D"/>
<path d="M32.7417 39.6086C32.7417 39.8837 32.5212 40.1068 32.2492 40.1068C31.9773 40.1068 31.7568 39.8837 31.7568 39.6086C31.7568 39.3334 31.9773 39.1104 32.2492 39.1104C32.5212 39.1104 32.7417 39.3334 32.7417 39.6086Z" fill="#445C8D"/>
<path d="M35.203 39.1107C35.203 39.661 34.7621 40.1071 34.2182 40.1071C33.6743 40.1071 33.2334 39.661 33.2334 39.1107C33.2334 38.5604 33.6743 38.1143 34.2182 38.1143C34.7621 38.1143 35.203 38.5604 35.203 39.1107Z" fill="#445C8D"/>
<path d="M39.1735 45.7799C39.1735 46.2592 38.7895 46.6478 38.3158 46.6478C37.842 46.6478 37.458 46.2592 37.458 45.7799C37.458 45.3007 37.842 44.9121 38.3158 44.9121C38.7895 44.9121 39.1735 45.3007 39.1735 45.7799Z" fill="#6688CC"/>
<path d="M35.7428 51.5656C35.7428 52.0449 35.3588 52.4334 34.8851 52.4334C34.4114 52.4334 34.0273 52.0449 34.0273 51.5656C34.0273 51.0863 34.4114 50.6978 34.8851 50.6978C35.3588 50.6978 35.7428 51.0863 35.7428 51.5656Z" fill="#6688CC"/>
<path d="M44.8923 42.8874C44.8923 43.3667 44.5082 43.7552 44.0345 43.7552C43.5608 43.7552 43.1768 43.3667 43.1768 42.8874C43.1768 42.4081 43.5608 42.0195 44.0345 42.0195C44.5082 42.0195 44.8923 42.4081 44.8923 42.8874Z" fill="#6688CC"/>
<path d="M51.1823 37.6803C51.1823 38.1596 50.7983 38.5482 50.3245 38.5482C49.8508 38.5482 49.4668 38.1596 49.4668 37.6803C49.4668 37.201 49.8508 36.8125 50.3245 36.8125C50.7983 36.8125 51.1823 37.201 51.1823 37.6803Z" fill="#6688CC"/>
<path d="M40.8898 46.6479C40.8898 46.9674 40.6337 47.2265 40.3179 47.2265C40.0021 47.2265 39.7461 46.9674 39.7461 46.6479C39.7461 46.3284 40.0021 46.0693 40.3179 46.0693C40.6337 46.0693 40.8898 46.3284 40.8898 46.6479Z" fill="#6688CC"/>
<path d="M46.6075 41.4409C46.6075 41.7604 46.3515 42.0194 46.0357 42.0194C45.7199 42.0194 45.4639 41.7604 45.4639 41.4409C45.4639 41.1213 45.7199 40.8623 46.0357 40.8623C46.3515 40.8623 46.6075 41.1213 46.6075 41.4409Z" fill="#6688CC"/>
<path d="M43.177 44.3339C43.177 44.9729 42.6649 45.491 42.0333 45.491C41.4017 45.491 40.8896 44.9729 40.8896 44.3339C40.8896 43.6948 41.4017 43.1768 42.0333 43.1768C42.6649 43.1768 43.177 43.6948 43.177 44.3339Z" fill="#6688CC"/>
<path d="M48.3235 39.7055C48.3235 40.3445 47.8114 40.8626 47.1798 40.8626C46.5482 40.8626 46.0361 40.3445 46.0361 39.7055C46.0361 39.0664 46.5482 38.5483 47.1798 38.5483C47.8114 38.5483 48.3235 39.0664 48.3235 39.7055Z" fill="#6688CC"/>
<path d="M38.0305 48.9623C38.0305 49.6013 37.5185 50.1194 36.8868 50.1194C36.2552 50.1194 35.7432 49.6013 35.7432 48.9623C35.7432 48.3232 36.2552 47.8052 36.8868 47.8052C37.5185 47.8052 38.0305 48.3232 38.0305 48.9623Z" fill="#6688CC"/>
</svg>
