<svg width="26" height="26" viewBox="0 0 26 26" fill="none" xmlns="http://www.w3.org/2000/svg">
<path d="M1.15633 19.7499H4.05844L10.2673 13.7199C10.371 13.6021 10.4985 13.5065 10.642 13.439C10.7854 13.3714 10.9417 13.3335 11.1009 13.3275C11.2601 13.3215 11.4189 13.3476 11.5673 13.4042C11.7157 13.4607 11.8504 13.5465 11.9631 13.6562C12.0758 13.7658 12.164 13.8969 12.2221 14.0413C12.2802 14.1856 12.307 14.3401 12.3009 14.4951C12.2947 14.65 12.2557 14.802 12.1863 14.9416C12.1169 15.0812 12.0186 15.2053 11.8976 15.3061L5.78121 21.2574V24.2499C5.78121 24.5483 5.65939 24.8344 5.44256 25.0454C5.22572 25.2564 4.93163 25.3749 4.62499 25.3749C4.31834 25.3749 4.02425 25.2564 3.80741 25.0454C3.59058 24.8344 3.46877 24.5483 3.46877 24.2499V21.9999H1.15633C0.849678 21.9999 0.555588 21.8814 0.338755 21.6704C0.121922 21.4594 0.000105858 21.1733 0.000105858 20.8749C0.000105858 20.5765 0.121922 20.2904 0.338755 20.0794C0.555588 19.8684 0.849678 19.7499 1.15633 19.7499Z" fill="#C9CACD"/>
<path d="M9.932 8.64624C10.712 6.43702 11.9386 4.40206 13.5394 2.66124C14.8545 1.46892 16.5939 0.819807 18.3911 0.850661C20.1884 0.881515 21.9031 1.58992 23.1742 2.82664C24.4452 4.06336 25.1733 5.73182 25.205 7.48053C25.2367 9.22924 24.5696 10.9217 23.3442 12.2012C21.552 13.9562 16.8924 16.4537 13.3775 16.4537C12.8119 16.4886 12.2448 16.4118 11.7103 16.2282C11.1759 16.0445 10.685 15.7577 10.2673 15.385C8.91453 14.125 8.7989 11.74 9.932 8.64624Z" fill="#6688CC"/>
</svg>
